<?xml version="1.0" standalone="no"?>
<!DOCTYPE svg PUBLIC "-//W3C//DTD SVG 20010904//EN"
 "http://www.w3.org/TR/2001/REC-SVG-20010904/DTD/svg10.dtd">
<svg version="1.0" xmlns="http://www.w3.org/2000/svg"
 width="1206.000000pt" height="1206.000000pt" viewBox="0 0 1206.000000 1206.000000"
 preserveAspectRatio="xMidYMid meet">
<metadata>
Created by potrace 1.16, written by Peter Selinger 2001-2019
</metadata>
<g transform="translate(0.000000,1206.000000) scale(0.100000,-0.100000)"
fill="#000000" stroke="none">
<path d="M5514 10210 c-9 -9 -73 -21 -191 -37 -24 -3 -43 -9 -43 -14 0 -5 -13
-9 -29 -9 -16 0 -42 -6 -58 -14 -15 -8 -39 -19 -53 -24 -80 -32 -150 -67 -150
-74 0 -4 -9 -8 -20 -8 -11 0 -20 -4 -20 -10 0 -5 -8 -10 -19 -10 -10 0 -24 -7
-31 -15 -7 -8 -17 -15 -22 -15 -5 0 -21 -11 -35 -24 -14 -13 -37 -30 -52 -38
-14 -7 -28 -15 -31 -19 -3 -3 -23 -18 -45 -34 -53 -38 -253 -236 -260 -256 -3
-8 -14 -24 -24 -36 -21 -23 -92 -127 -124 -183 -20 -35 -87 -170 -99 -200 -6
-14 -17 -37 -24 -52 -8 -14 -14 -35 -14 -46 0 -12 -4 -24 -10 -27 -5 -3 -10
-24 -10 -45 0 -21 -4 -42 -10 -45 -5 -3 -10 -24 -10 -46 0 -22 -5 -50 -12 -62
-10 -19 -31 -226 -27 -282 0 -11 1 -70 1 -130 l1 -110 201 -129 c406 -261 909
-554 1290 -750 l148 -77 194 100 c243 126 523 284 814 459 254 152 607 376
630 398 24 23 21 409 -4 524 -10 47 -21 101 -26 120 -27 130 -125 352 -218
493 -76 116 -105 152 -221 270 -84 85 -111 107 -133 107 -16 0 -28 -4 -28 -10
0 -5 -5 -10 -10 -10 -13 0 -16 -2 -104 -80 -37 -33 -73 -60 -78 -60 -6 0 -25
-15 -43 -34 -18 -19 -46 -43 -62 -53 -28 -17 -49 -34 -180 -145 -31 -27 -60
-48 -64 -48 -14 0 -49 -34 -49 -47 0 -7 31 -33 69 -58 l69 -46 -15 -29 c-15
-30 -50 -62 -109 -97 -35 -20 -136 -97 -174 -130 -14 -13 -30 -23 -37 -23 -7
0 -13 -4 -13 -8 0 -5 -16 -14 -35 -22 -19 -8 -45 -24 -56 -37 -19 -19 -20 -25
-8 -39 8 -10 32 -25 54 -35 22 -10 51 -29 64 -43 20 -21 21 -27 10 -48 -14
-27 -46 -56 -74 -69 -34 -16 -86 -49 -104 -66 -9 -9 -47 -37 -86 -62 -38 -25
-74 -49 -80 -53 -21 -17 -86 -58 -92 -58 -4 0 -16 -8 -27 -19 -12 -10 -43 -31
-71 -46 -27 -15 -61 -38 -76 -51 -14 -13 -29 -24 -33 -24 -5 0 -21 -11 -38
-25 -16 -14 -36 -25 -44 -25 -8 0 -14 -4 -14 -8 0 -5 -15 -16 -32 -25 -51 -26
-69 -39 -121 -84 -27 -24 -53 -43 -58 -43 -5 0 -20 -10 -35 -22 -31 -28 -108
-40 -132 -22 -19 15 -26 7 366 405 127 130 232 243 232 252 0 9 -12 24 -27 34
-16 10 -32 21 -38 26 -33 25 -88 57 -98 57 -12 0 -77 60 -77 71 0 3 126 121
280 264 154 143 280 262 280 266 0 4 -21 24 -47 45 -27 21 -58 48 -71 60 l-23
21 173 159 c95 87 235 217 311 288 l139 129 -24 19 c-12 9 -40 18 -60 18 -20
0 -40 5 -43 10 -3 6 -28 10 -54 10 -27 0 -68 7 -91 15 -51 18 -449 22 -466 5z"/>
<path d="M4185 7994 c4 -11 10 -27 12 -36 3 -10 9 -18 14 -18 5 0 9 -6 9 -14
0 -17 52 -120 62 -124 5 -2 8 -12 8 -22 0 -10 4 -21 9 -25 6 -3 22 -30 36 -60
15 -30 33 -59 41 -66 8 -6 14 -17 14 -23 0 -6 16 -28 35 -50 19 -21 35 -41 35
-45 0 -26 333 -331 361 -331 17 0 54 -86 59 -137 l5 -52 120 53 c173 77 449
206 457 214 4 4 -44 33 -106 64 -338 172 -835 460 -1105 641 -52 35 -72 44
-66 31z"/>
<path d="M7215 7962 c-326 -212 -747 -456 -1073 -622 -78 -40 -142 -74 -142
-77 0 -5 211 -107 405 -194 l150 -67 12 41 c6 23 17 60 22 83 9 34 21 48 69
79 218 145 428 380 545 610 42 84 88 187 85 191 -2 1 -34 -18 -73 -44z"/>
<path d="M5670 7111 c-62 -32 -407 -181 -605 -261 -71 -29 -132 -54 -133 -56
-4 -3 16 -71 29 -96 5 -9 12 -35 15 -58 4 -22 11 -43 15 -46 5 -3 9 -23 9 -44
0 -21 5 -42 10 -45 6 -3 10 -21 10 -39 0 -19 7 -47 15 -62 8 -16 15 -43 15
-60 0 -17 7 -48 15 -68 l15 -36 649 0 c610 0 650 1 655 18 5 15 64 267 112
475 9 38 14 70 12 72 -1 1 -92 39 -202 84 -109 45 -280 118 -380 162 -99 45
-185 83 -191 85 -5 2 -35 -10 -65 -25z"/>
<path d="M5200 6032 c-6 -2 -10 -44 -10 -98 l0 -94 540 0 c297 0 543 -1 548
-2 4 -2 8 39 10 90 2 68 -1 94 -10 97 -15 5 -1063 12 -1078 7z"/>
<path d="M5199 5619 c-6 -3 -9 -43 -7 -89 l3 -83 545 -1 545 -1 0 90 0 90
-538 0 c-296 0 -543 -3 -548 -6z"/>
<path d="M5965 5209 c-3 -8 -4 -408 -3 -889 l3 -875 215 0 215 0 3 328 c1 180
6 327 10 327 13 -1 45 -28 132 -113 47 -45 119 -112 160 -148 41 -37 120 -110
175 -163 55 -53 102 -96 105 -96 3 0 57 106 120 236 63 130 158 320 212 422
l98 186 0 308 c0 239 -3 308 -12 309 -7 1 -83 1 -169 -1 -106 -1 -159 2 -163
9 -12 18 -61 12 -90 -10 l-28 -22 3 -321 c2 -177 0 -327 -5 -334 -13 -21 -31
-11 -103 58 -37 36 -97 90 -133 120 -35 30 -85 75 -110 100 -25 25 -75 70
-110 100 -36 30 -83 73 -106 95 -93 90 -212 201 -240 224 -16 13 -61 55 -101
94 -51 50 -74 66 -78 56z"/>
<path d="M3248 5049 c-17 -9 -18 -58 -18 -804 l0 -795 220 0 220 0 0 145 0
144 38 -25 c20 -14 66 -53 102 -87 83 -80 159 -133 238 -169 73 -33 170 -58
227 -58 l40 1 74 164 c61 137 72 167 61 180 -7 8 -22 15 -34 15 -11 0 -34 7
-50 15 -15 8 -39 15 -52 15 -12 0 -26 5 -29 10 -3 6 -13 10 -22 10 -14 0 -94
64 -101 81 -1 3 12 12 30 19 57 23 143 88 181 138 78 103 111 217 111 377 -1
134 -16 208 -60 303 -37 77 -136 192 -166 192 -9 0 -18 3 -20 8 -6 13 -105 62
-126 62 -12 0 -24 5 -27 10 -3 6 -30 10 -60 10 -30 0 -66 5 -82 11 -58 23
-662 47 -695 28z m631 -512 c60 -30 102 -84 108 -140 10 -86 -62 -187 -132
-187 -13 0 -27 -4 -30 -10 -10 -16 -124 -12 -141 4 -11 12 -14 52 -14 192 l0
177 83 -7 c53 -4 97 -14 126 -29z"/>
<path d="M4690 5046 c-20 -9 -20 -14 -18 -805 l3 -796 543 1 544 1 2 212 c1
117 -2 215 -6 217 -4 3 -144 5 -311 4 -287 0 -304 1 -321 19 -12 14 -16 32
-14 67 l3 49 323 3 c177 1 322 6 323 10 0 4 1 99 2 211 1 132 -2 209 -9 219
-11 15 -16 14 -167 -4 -33 -4 -82 -2 -115 5 -42 8 -86 8 -157 1 -88 -9 -106
-8 -150 8 l-50 18 0 54 0 55 323 3 322 2 0 23 c0 12 2 107 4 211 3 172 2 190
-15 204 -15 13 -84 15 -528 16 -285 1 -519 -3 -531 -8z"/>
<path d="M7613 5047 c-21 -11 -22 -19 -25 -149 -4 -183 -2 -190 42 -125 135
202 169 237 232 237 41 0 97 -20 125 -45 l28 -23 -27 -54 c-14 -30 -106 -194
-204 -364 -256 -444 -231 -391 -214 -461 10 -40 14 -96 12 -178 -2 -66 -4
-192 -5 -280 l-2 -160 405 0 c395 0 407 1 480 23 318 98 523 326 579 646 14
77 14 216 0 292 -43 243 -215 467 -439 570 -19 8 -43 20 -52 25 -10 5 -27 9
-39 9 -11 0 -30 5 -42 12 -32 18 -168 31 -287 28 -186 -4 -474 -3 -510 3 -19
3 -45 0 -57 -6z m647 -462 c119 -25 196 -78 244 -168 24 -44 26 -57 26 -177 0
-120 -2 -133 -26 -177 -29 -54 -90 -113 -116 -113 -10 0 -18 -4 -18 -10 0 -5
-11 -10 -25 -10 -14 0 -33 -4 -43 -9 -24 -13 -151 -41 -185 -41 -16 0 -42 8
-58 17 l-29 17 0 343 0 343 79 0 c44 0 112 -7 151 -15z"/>
<path d="M9206 5041 c-17 -19 -18 -56 -17 -759 2 -538 -1 -746 -10 -764 -9
-21 -8 -30 6 -52 l18 -27 538 3 539 3 0 216 c0 242 -2 248 -62 234 -18 -5
-145 -10 -282 -12 -305 -5 -306 -4 -306 79 l0 58 325 0 325 0 0 209 c0 115 -3
216 -6 225 -5 13 -37 14 -242 11 -129 -3 -244 -7 -255 -11 -10 -3 -47 2 -83
12 l-64 17 0 53 0 52 63 7 c34 4 179 6 322 4 l260 -4 0 220 0 220 -480 6
c-264 4 -500 10 -525 14 -38 6 -48 3 -64 -14z"/>
<path d="M1810 5016 c-8 -16 -10 -37 -5 -63 5 -21 9 -364 11 -761 1 -398 5
-729 7 -736 4 -9 55 -12 208 -10 112 1 207 3 212 3 4 1 7 52 7 115 l0 114 108
1 c419 6 659 166 718 482 21 110 14 314 -14 416 -28 103 -81 191 -156 260 -60
55 -86 72 -146 96 -14 5 -32 13 -40 17 -9 4 -30 11 -48 14 -17 4 -34 12 -37
17 -4 5 -24 9 -45 9 -21 0 -41 4 -44 9 -3 4 -49 11 -103 15 -54 3 -125 10
-158 15 -33 5 -150 10 -261 10 l-201 1 -13 -24z m635 -428 c70 -14 145 -66
173 -117 17 -34 22 -59 22 -121 0 -44 -4 -82 -10 -85 -5 -3 -10 -14 -10 -24 0
-40 -109 -101 -180 -101 -27 0 -52 -4 -55 -10 -9 -14 -76 -12 -108 3 l-27 12
0 226 c0 124 2 228 5 231 8 8 130 -1 190 -14z"/>
<path d="M7293 3613 l-111 -228 46 -40 c26 -22 72 -63 103 -92 31 -29 61 -53
67 -53 9 0 12 84 12 320 0 176 -2 320 -3 320 -2 0 -54 -102 -114 -227z"/>
</g>
</svg>
